<mxfile host="app.diagrams.net" agent="Mozilla/5.0 (Windows NT 10.0; Win64; x64) AppleWebKit/537.36 (KHTML, like Gecko) Chrome/130.0.0.0 Safari/537.36 OPR/115.0.0.0" version="25.0.3">
  <diagram name="Page-1" id="lY8ImCbq6xqDSYd5CE9Q">
    <mxGraphModel dx="1236" dy="531" grid="1" gridSize="10" guides="1" tooltips="1" connect="1" arrows="1" fold="1" page="1" pageScale="1" pageWidth="1700" pageHeight="1100" math="0" shadow="0">
      <root>
        <mxCell id="0" />
        <mxCell id="1" parent="0" />
        <mxCell id="h6P8nCgVh_O-HDzW5caL-2" value="Build" style="ellipse;whiteSpace=wrap;html=1;aspect=fixed;" parent="1" vertex="1">
          <mxGeometry x="612" y="400" width="100" height="100" as="geometry" />
        </mxCell>
        <mxCell id="h6P8nCgVh_O-HDzW5caL-3" value="Docker Image CI" style="rounded=1;whiteSpace=wrap;html=1;" parent="1" vertex="1">
          <mxGeometry x="363" y="420" width="120" height="60" as="geometry" />
        </mxCell>
        <mxCell id="h6P8nCgVh_O-HDzW5caL-4" style="edgeStyle=orthogonalEdgeStyle;rounded=0;orthogonalLoop=1;jettySize=auto;html=1;entryX=0;entryY=0.5;entryDx=0;entryDy=0;" parent="1" source="h6P8nCgVh_O-HDzW5caL-5" target="h6P8nCgVh_O-HDzW5caL-11" edge="1">
          <mxGeometry relative="1" as="geometry" />
        </mxCell>
        <mxCell id="h6P8nCgVh_O-HDzW5caL-5" value="Build" style="ellipse;whiteSpace=wrap;html=1;aspect=fixed;" parent="1" vertex="1">
          <mxGeometry x="610" y="120" width="100" height="100" as="geometry" />
        </mxCell>
        <mxCell id="h6P8nCgVh_O-HDzW5caL-6" value="Java CI&amp;nbsp;&lt;div&gt;with Gradle&lt;/div&gt;" style="rounded=1;whiteSpace=wrap;html=1;" parent="1" vertex="1">
          <mxGeometry x="360" y="140" width="120" height="60" as="geometry" />
        </mxCell>
        <mxCell id="h6P8nCgVh_O-HDzW5caL-7" style="edgeStyle=orthogonalEdgeStyle;rounded=0;orthogonalLoop=1;jettySize=auto;html=1;entryX=0;entryY=0.5;entryDx=0;entryDy=0;" parent="1" source="h6P8nCgVh_O-HDzW5caL-8" target="eLSRReAdFemIOKwLZGMY-1" edge="1">
          <mxGeometry relative="1" as="geometry" />
        </mxCell>
        <mxCell id="h6P8nCgVh_O-HDzW5caL-8" value="Build" style="ellipse;whiteSpace=wrap;html=1;aspect=fixed;" parent="1" vertex="1">
          <mxGeometry x="613" y="260" width="100" height="100" as="geometry" />
        </mxCell>
        <mxCell id="h6P8nCgVh_O-HDzW5caL-9" value="Sonarqube&lt;div&gt;Analyze&lt;/div&gt;" style="rounded=1;whiteSpace=wrap;html=1;" parent="1" vertex="1">
          <mxGeometry x="363" y="280" width="120" height="60" as="geometry" />
        </mxCell>
        <mxCell id="3mGRXp6iqAVC4NsbLFMK-4" style="edgeStyle=orthogonalEdgeStyle;rounded=0;orthogonalLoop=1;jettySize=auto;html=1;entryX=0.5;entryY=0;entryDx=0;entryDy=0;" edge="1" parent="1" source="h6P8nCgVh_O-HDzW5caL-11" target="h6P8nCgVh_O-HDzW5caL-9">
          <mxGeometry relative="1" as="geometry">
            <Array as="points">
              <mxPoint x="1010" y="240" />
              <mxPoint x="423" y="240" />
            </Array>
          </mxGeometry>
        </mxCell>
        <mxCell id="3mGRXp6iqAVC4NsbLFMK-7" value="depends on" style="edgeLabel;html=1;align=center;verticalAlign=middle;resizable=0;points=[];" vertex="1" connectable="0" parent="3mGRXp6iqAVC4NsbLFMK-4">
          <mxGeometry x="0.4803" y="-2" relative="1" as="geometry">
            <mxPoint x="189" y="2" as="offset" />
          </mxGeometry>
        </mxCell>
        <mxCell id="h6P8nCgVh_O-HDzW5caL-11" value="Test" style="ellipse;whiteSpace=wrap;html=1;aspect=fixed;" parent="1" vertex="1">
          <mxGeometry x="960" y="120" width="100" height="100" as="geometry" />
        </mxCell>
        <mxCell id="h6P8nCgVh_O-HDzW5caL-12" value="" style="endArrow=none;html=1;rounded=0;exitX=1;exitY=0.5;exitDx=0;exitDy=0;entryX=0;entryY=0.5;entryDx=0;entryDy=0;" parent="1" source="h6P8nCgVh_O-HDzW5caL-3" edge="1">
          <mxGeometry width="50" height="50" relative="1" as="geometry">
            <mxPoint x="693" y="585" as="sourcePoint" />
            <mxPoint x="613" y="450" as="targetPoint" />
          </mxGeometry>
        </mxCell>
        <mxCell id="h6P8nCgVh_O-HDzW5caL-13" value="" style="endArrow=none;html=1;rounded=0;exitX=1;exitY=0.5;exitDx=0;exitDy=0;entryX=0;entryY=0.5;entryDx=0;entryDy=0;" parent="1" source="h6P8nCgVh_O-HDzW5caL-6" target="h6P8nCgVh_O-HDzW5caL-5" edge="1">
          <mxGeometry width="50" height="50" relative="1" as="geometry">
            <mxPoint x="480" y="169.5" as="sourcePoint" />
            <mxPoint x="610" y="169.5" as="targetPoint" />
          </mxGeometry>
        </mxCell>
        <mxCell id="h6P8nCgVh_O-HDzW5caL-14" value="" style="endArrow=none;html=1;rounded=0;entryX=0;entryY=0.5;entryDx=0;entryDy=0;exitX=1;exitY=0.5;exitDx=0;exitDy=0;" parent="1" source="h6P8nCgVh_O-HDzW5caL-9" target="h6P8nCgVh_O-HDzW5caL-8" edge="1">
          <mxGeometry width="50" height="50" relative="1" as="geometry">
            <mxPoint x="483" y="320" as="sourcePoint" />
            <mxPoint x="613" y="309.5" as="targetPoint" />
          </mxGeometry>
        </mxCell>
        <mxCell id="h6P8nCgVh_O-HDzW5caL-15" value="&lt;font style=&quot;font-size: 24px;&quot;&gt;âœ…&lt;/font&gt;" style="ellipse;whiteSpace=wrap;html=1;aspect=fixed;" parent="1" vertex="1">
          <mxGeometry x="1130" y="255" width="110" height="110" as="geometry" />
        </mxCell>
        <mxCell id="h6P8nCgVh_O-HDzW5caL-16" value="" style="image;points=[];aspect=fixed;html=1;align=center;shadow=0;dashed=0;image=img/lib/allied_telesis/computer_and_terminals/Personal_Computer.svg;" parent="1" vertex="1">
          <mxGeometry x="60" y="269.09999999999997" width="60.36" height="81.8" as="geometry" />
        </mxCell>
        <mxCell id="h6P8nCgVh_O-HDzW5caL-17" value="GitHub Server" style="image;points=[];aspect=fixed;html=1;align=center;shadow=0;dashed=0;image=img/lib/allied_telesis/computer_and_terminals/Server_Desktop.svg;" parent="1" vertex="1">
          <mxGeometry x="220" y="266.5" width="68.63" height="87" as="geometry" />
        </mxCell>
        <mxCell id="h6P8nCgVh_O-HDzW5caL-18" style="edgeStyle=orthogonalEdgeStyle;rounded=0;orthogonalLoop=1;jettySize=auto;html=1;entryX=-0.003;entryY=0.5;entryDx=0;entryDy=0;entryPerimeter=0;" parent="1" source="h6P8nCgVh_O-HDzW5caL-16" target="h6P8nCgVh_O-HDzW5caL-17" edge="1">
          <mxGeometry relative="1" as="geometry" />
        </mxCell>
        <mxCell id="h6P8nCgVh_O-HDzW5caL-20" value="" style="endArrow=none;html=1;rounded=0;entryX=0;entryY=0.5;entryDx=0;entryDy=0;edgeStyle=orthogonalEdgeStyle;" parent="1" target="h6P8nCgVh_O-HDzW5caL-6" edge="1">
          <mxGeometry width="50" height="50" relative="1" as="geometry">
            <mxPoint x="290" y="310" as="sourcePoint" />
            <mxPoint x="530" y="330" as="targetPoint" />
          </mxGeometry>
        </mxCell>
        <mxCell id="h6P8nCgVh_O-HDzW5caL-22" value="PC where&amp;nbsp;&lt;div&gt;code is written&lt;/div&gt;" style="text;html=1;align=center;verticalAlign=middle;resizable=0;points=[];autosize=1;strokeColor=none;fillColor=none;" parent="1" vertex="1">
          <mxGeometry x="40.18" y="360" width="100" height="40" as="geometry" />
        </mxCell>
        <mxCell id="eLSRReAdFemIOKwLZGMY-3" style="edgeStyle=orthogonalEdgeStyle;rounded=0;orthogonalLoop=1;jettySize=auto;html=1;entryX=0;entryY=0.5;entryDx=0;entryDy=0;" parent="1" source="eLSRReAdFemIOKwLZGMY-1" target="eLSRReAdFemIOKwLZGMY-2" edge="1">
          <mxGeometry relative="1" as="geometry" />
        </mxCell>
        <mxCell id="eLSRReAdFemIOKwLZGMY-1" value="Analysis" style="ellipse;whiteSpace=wrap;html=1;aspect=fixed;" parent="1" vertex="1">
          <mxGeometry x="787" y="260" width="100" height="100" as="geometry" />
        </mxCell>
        <mxCell id="3mGRXp6iqAVC4NsbLFMK-5" style="edgeStyle=orthogonalEdgeStyle;rounded=0;orthogonalLoop=1;jettySize=auto;html=1;entryX=0.5;entryY=0;entryDx=0;entryDy=0;" edge="1" parent="1" source="eLSRReAdFemIOKwLZGMY-2" target="h6P8nCgVh_O-HDzW5caL-3">
          <mxGeometry relative="1" as="geometry">
            <Array as="points">
              <mxPoint x="1010" y="380" />
              <mxPoint x="423" y="380" />
            </Array>
          </mxGeometry>
        </mxCell>
        <mxCell id="eLSRReAdFemIOKwLZGMY-2" value="Quality gate" style="ellipse;whiteSpace=wrap;html=1;aspect=fixed;" parent="1" vertex="1">
          <mxGeometry x="960" y="260" width="100" height="100" as="geometry" />
        </mxCell>
        <mxCell id="eLSRReAdFemIOKwLZGMY-6" value="" style="edgeStyle=orthogonalEdgeStyle;rounded=0;orthogonalLoop=1;jettySize=auto;html=1;entryX=0;entryY=0.5;entryDx=0;entryDy=0;" parent="1" target="eLSRReAdFemIOKwLZGMY-5" edge="1">
          <mxGeometry relative="1" as="geometry">
            <mxPoint x="713" y="450" as="sourcePoint" />
            <mxPoint x="1155" y="540" as="targetPoint" />
          </mxGeometry>
        </mxCell>
        <mxCell id="eLSRReAdFemIOKwLZGMY-5" value="Build Docker&lt;div&gt;Image&lt;/div&gt;" style="ellipse;whiteSpace=wrap;html=1;aspect=fixed;" parent="1" vertex="1">
          <mxGeometry x="784" y="400" width="100" height="100" as="geometry" />
        </mxCell>
        <mxCell id="eLSRReAdFemIOKwLZGMY-8" value="" style="edgeStyle=orthogonalEdgeStyle;rounded=0;orthogonalLoop=1;jettySize=auto;html=1;entryX=0;entryY=0.5;entryDx=0;entryDy=0;" parent="1" source="eLSRReAdFemIOKwLZGMY-5" target="eLSRReAdFemIOKwLZGMY-7" edge="1">
          <mxGeometry relative="1" as="geometry">
            <mxPoint x="880" y="450" as="sourcePoint" />
            <mxPoint x="1155" y="540" as="targetPoint" />
          </mxGeometry>
        </mxCell>
        <mxCell id="3mGRXp6iqAVC4NsbLFMK-6" style="edgeStyle=orthogonalEdgeStyle;rounded=0;orthogonalLoop=1;jettySize=auto;html=1;entryX=0.5;entryY=1;entryDx=0;entryDy=0;" edge="1" parent="1" source="eLSRReAdFemIOKwLZGMY-7" target="h6P8nCgVh_O-HDzW5caL-15">
          <mxGeometry relative="1" as="geometry" />
        </mxCell>
        <mxCell id="eLSRReAdFemIOKwLZGMY-7" value="Push image to Docker Hub" style="ellipse;whiteSpace=wrap;html=1;aspect=fixed;" parent="1" vertex="1">
          <mxGeometry x="960" y="400" width="100" height="100" as="geometry" />
        </mxCell>
        <mxCell id="3mGRXp6iqAVC4NsbLFMK-8" value="depends on" style="edgeLabel;html=1;align=center;verticalAlign=middle;resizable=0;points=[];" vertex="1" connectable="0" parent="1">
          <mxGeometry x="740" y="380" as="geometry" />
        </mxCell>
      </root>
    </mxGraphModel>
  </diagram>
</mxfile>
